custom-analysis
version=1
nRows=6
nColumns=98
inDegrees=no

This file contains tibia displacement and acting force.

Units are S.I. units (seconds, meters, Newtons, ...)
Angles are in degrees.

endheader
time	APT	SIT	knee_angle	aACL_R_force	pACL_R_force	aPCL_R_force	pPCL_R_force	aMCL_R_force	mMCL_R_force	pMCL_R_force	aLCL_R_force	mLCL_R_force	pLCL_R_force	aPCL_L_force	pPCL_L_force	aMCL_L_force	aLCL_L_force	aACL_R_length	pACL_R_length	aPCL_R_length	pPCL_R_length	aMCL_R_length	mMCL_R_length	pMCL_R_length	aLCL_R_length	mLCL_R_length	pLCL_R_length	aPCL_L_length	pPCL_L_length	aMCL_L_length	aLCL_L_length	aACL_R_strain	pACL_R_strain	aPCL_R_strain	pPCL_R_strain	aMCL_R_strain	mMCL_R_strain	pMCL_R_strain	aLCL_R_strain	mLCL_R_strain	pLCL_R_strain	aPCL_L_strain	pPCL_L_strain	aMCL_L_strain	aLCL_L_strain	femur_lat_meniscii_r.femur_lat_r.force.X	femur_lat_meniscii_r.femur_lat_r.force.Y	femur_lat_meniscii_r.femur_lat_r.force.Z	femur_lat_meniscii_r.femur_lat_r.torque.X	femur_lat_meniscii_r.femur_lat_r.torque.Y	femur_lat_meniscii_r.femur_lat_r.torque.Z	femur_lat_meniscii_r.meniscus_lat_r.force.X	femur_lat_meniscii_r.meniscus_lat_r.force.Y	femur_lat_meniscii_r.meniscus_lat_r.force.Z	femur_lat_meniscii_r.meniscus_lat_r.torque.X	femur_lat_meniscii_r.meniscus_lat_r.torque.Y	femur_lat_meniscii_r.meniscus_lat_r.torque.Z	femur_med_meniscii_r.femur_med_r.force.X	femur_med_meniscii_r.femur_med_r.force.Y	femur_med_meniscii_r.femur_med_r.force.Z	femur_med_meniscii_r.femur_med_r.torque.X	femur_med_meniscii_r.femur_med_r.torque.Y	femur_med_meniscii_r.femur_med_r.torque.Z	femur_med_meniscii_r.meniscus_med_r.force.X	femur_med_meniscii_r.meniscus_med_r.force.Y	femur_med_meniscii_r.meniscus_med_r.force.Z	femur_med_meniscii_r.meniscus_med_r.torque.X	femur_med_meniscii_r.meniscus_med_r.torque.Y	femur_med_meniscii_r.meniscus_med_r.torque.Z	femur_med_tibia_r.tibia_upper_r.force.X	femur_med_tibia_r.tibia_upper_r.force.Y	femur_med_tibia_r.tibia_upper_r.force.Z	femur_med_tibia_r.tibia_upper_r.torque.X	femur_med_tibia_r.tibia_upper_r.torque.Y	femur_med_tibia_r.tibia_upper_r.torque.Z	femur_med_tibia_r.femur_med_r.force.X	femur_med_tibia_r.femur_med_r.force.Y	femur_med_tibia_r.femur_med_r.force.Z	femur_med_tibia_r.femur_med_r.torque.X	femur_med_tibia_r.femur_med_r.torque.Y	femur_med_tibia_r.femur_med_r.torque.Z	femur_lat_tibia_r.tibia_upper_r.force.X	femur_lat_tibia_r.tibia_upper_r.force.Y	femur_lat_tibia_r.tibia_upper_r.force.Z	femur_lat_tibia_r.tibia_upper_r.torque.X	femur_lat_tibia_r.tibia_upper_r.torque.Y	femur_lat_tibia_r.tibia_upper_r.torque.Z	femur_lat_tibia_r.femur_lat_r.force.X	femur_lat_tibia_r.femur_lat_r.force.Y	femur_lat_tibia_r.femur_lat_r.force.Z	femur_lat_tibia_r.femur_lat_r.torque.X	femur_lat_tibia_r.femur_lat_r.torque.Y	femur_lat_tibia_r.femur_lat_r.torque.Z	femur_lat_meniscii_force_r	femur_med_meniscii_force_r	femur_lat_tibia_force_r	femur_med_tibia_force_r
      0.17616369	      0.01478168	      0.01885201	     59.90056373	      1.65340500	      0.00000000	    373.78990559	    221.80041835	      0.00000000	      0.00000000	      0.00000000	      0.00000000	      0.00000000	      0.00000000	      0.00000000	      0.00000000	      0.00000001	      0.00000000	      0.03237474	      0.02472383	      0.03375552	      0.03136309	      0.05961099	      0.05919044	      0.05623229	      0.05116301	      0.04635143	      0.04119980	      0.01525851	      0.01651186	      0.06550154	      0.04489616	      0.04416128	     -0.01336355	      0.08555065	      0.04936078	     -0.00693046	     -0.01008571	     -0.04249616	     -0.08600272	     -0.17697829	     -0.21288351	      0.00000079	     -0.32847694	      0.00000060	     -0.00000086	     42.23340240	    164.07374279	     25.03108780	    -14.07530972	      1.11330506	     15.85135966	    -42.23340240	   -164.07374279	    -25.03108780	      4.63865603	     -1.76240043	      4.32521055	     21.36564587	      9.80494673	     -1.11178924	      0.64628763	     -0.46402823	      8.55746052	    -21.36564587	     -9.80494673	      1.11178924	     -0.19720570	      0.45214736	     -0.03207306	   -445.02232424	   -648.23938505	    188.37119918	    -13.48866540	     12.12123277	      9.44884687	    445.02232424	    648.23938505	   -188.37119918	     87.80244805	     -8.57272838	    178.32705910	    -26.62432068	   -122.71225389	    -28.51096334	      3.58434220	     -1.51411362	      3.18461247	     26.62432068	    122.71225389	     28.51096334	    -14.44530646	      0.81240617	      9.97782941	    171.26122944	     23.53431280	    128.76345264	    808.54367729
      0.17638325	      0.01479050	      0.01889115	     60.01121001	      1.53983250	      0.00000000	    376.81411746	    223.39122157	      0.00000000	      0.00000000	      0.00000000	      0.00000000	      0.00000000	      0.00000000	      0.00000000	      0.00000000	      0.00000001	      0.00000000	      0.03236747	      0.02471825	      0.03377263	      0.03137315	      0.05962038	      0.05919061	      0.05622687	      0.05116010	      0.04634291	      0.04118878	      0.01525851	      0.01651186	      0.06550154	      0.04489616	      0.04392667	     -0.01358626	      0.08610066	      0.04969739	     -0.00677395	     -0.01008282	     -0.04258844	     -0.08605463	     -0.17712965	     -0.21309404	      0.00000079	     -0.32847694	      0.00000060	     -0.00000086	     42.24494389	    163.66926690	     24.85063402	    -13.99208506	      1.11046123	     15.85188498	    -42.24494389	   -163.66926690	    -24.85063402	      4.62419016	     -1.75622066	      4.32615821	     21.68801307	      9.75081974	     -1.17447131	      0.67121431	     -0.47174391	      8.68795493	    -21.68801307	     -9.75081974	      1.17447131	     -0.19783028	      0.46075391	     -0.03759669	   -448.37720904	   -649.58052944	    188.64675646	    -13.51315830	     12.19905928	      9.47628468	    448.37720904	    649.58052944	   -188.64675646	     87.94291562	     -8.64481689	    179.66756373	    -26.86816897	   -121.44013103	    -28.25292680	      3.54592896	     -1.51255547	      3.14607332	     26.86816897	    121.44013103	     28.25292680	    -14.30966190	      0.81547107	     10.08638994	    170.85028013	     23.80814523	    127.54541074	    811.53224491
      0.17671811	      0.01480381	      0.01895082	     60.18002094	      1.36441490	      0.00000000	    381.41547901	    225.79728448	      0.00000000	      0.00000000	      0.00000000	      0.00000000	      0.00000000	      0.00000000	      0.00000000	      0.00000000	      0.00000001	      0.00000000	      0.03235642	      0.02470983	      0.03379870	      0.03138850	      0.05963476	      0.05919095	      0.05621871	      0.05115566	      0.04632993	      0.04117207	      0.01525851	      0.01651186	      0.06550154	      0.04489616	      0.04357038	     -0.01392202	      0.08693923	      0.05021116	     -0.00653437	     -0.01007721	     -0.04272731	     -0.08613402	     -0.17735999	     -0.21341330	      0.00000079	     -0.32847694	      0.00000060	     -0.00000086	     42.75889471	    162.83332224	     24.31620774	    -13.74692976	      1.12134552	     16.06220711	    -42.75889471	   -162.83332224	    -24.31620774	      4.58427218	     -1.75689336	      4.30583226	     22.13816910	      9.80619529	     -1.20475284	      0.68458592	     -0.48233494	      8.86881007	    -22.13816910	     -9.80619529	      1.20475284	     -0.19926667	      0.47127397	     -0.04076402	   -454.46954165	   -650.59517177	    189.21630544	    -13.54200202	     12.33553199	      9.46154720	    454.46954165	    650.59517177	   -189.21630544	     88.20498345	     -8.77086993	    182.12449392	    -26.65149309	   -119.70976023	    -27.65282730	      3.48604711	     -1.49094013	      3.11057470	     26.65149309	    119.70976023	     27.65282730	    -14.02082354	      0.80673020	     10.00468923	    170.10082854	     24.24276029	    125.71955948	    815.85504354
      0.17693656	      0.01481238	      0.01898974	     60.29018531	      1.22149940	      0.00000000	    384.43015786	    227.40938800	      0.00000000	      0.00000000	      0.00000000	      0.00000000	      0.00000000	      0.00000000	      0.00000000	      0.00000000	      0.00000001	      0.00000000	      0.03234923	      0.02470439	      0.03381571	      0.03139853	      0.05964417	      0.05919121	      0.05621346	      0.05115275	      0.04632149	      0.04116123	      0.01525851	      0.01651186	      0.06550154	      0.04489616	      0.04333847	     -0.01413903	      0.08748628	      0.05054681	     -0.00637755	     -0.01007280	     -0.04281671	     -0.08618600	     -0.17750998	     -0.21362043	      0.00000079	     -0.32847694	      0.00000060	     -0.00000086	     42.95336780	    162.32219104	     24.21199367	    -13.69185239	      1.12376966	     16.13969007	    -42.95336780	   -162.32219104	    -24.21199367	      4.56819886	     -1.75802582	      4.29834170	     22.49208208	      9.93786664	     -1.24717728	      0.70398400	     -0.49023447	      9.00992322	    -22.49208208	     -9.93786664	      1.24717728	     -0.20189914	      0.47954371	     -0.04031582	   -457.82659196	   -651.77721685	    189.77961896	    -13.57284636	     12.42203359	      9.48462579	    457.82659196	    651.77721685	   -189.77961896	     88.46349956	     -8.84509808	    183.46706101	    -26.70551969	   -118.56908268	    -27.41479951	      3.45135701	     -1.48574257	      3.08124810	     26.70551969	    118.56908268	     27.41479951	    -13.89638777	      0.80607719	     10.03310187	    169.64582561	     24.62134036	    124.59287051	    818.80097245
      0.17727487	      0.01482547	      0.01905002	     60.46085258	      1.00869443	      0.00000000	    389.07260387	    229.84099272	      0.00000000	      0.00000000	      0.00000000	      0.00000000	      0.00000000	      0.00000000	      0.00000000	      0.00000000	      0.00000001	      0.00000000	      0.03233811	      0.02469604	      0.03384206	      0.03141409	      0.05965880	      0.05919169	      0.05620544	      0.05114822	      0.04630842	      0.04114453	      0.01525851	      0.01651186	      0.06550154	      0.04489616	      0.04297965	     -0.01447253	      0.08833345	      0.05106738	     -0.00613396	     -0.01006486	     -0.04295331	     -0.08626692	     -0.17774192	     -0.21393949	      0.00000079	     -0.32847694	      0.00000060	     -0.00000086	     42.89222421	    161.95494941	     24.12966663	    -13.64918132	      1.12047159	     16.10620050	    -42.89222421	   -161.95494941	    -24.12966663	      4.55597322	     -1.75390871	      4.30917467	     22.57228954	      9.84495458	     -1.28458401	      0.71667024	     -0.49160755	      9.04125610	    -22.57228954	     -9.84495458	      1.28458401	     -0.20013194	      0.48165883	     -0.04106051	   -462.89820826	   -653.13663408	    190.77248428	    -13.61672959	     12.55921372	      9.51064926	    462.89820826	    653.13663408	   -190.77248428	     88.90612933	     -8.96028182	    185.49610265	    -26.63799747	   -116.90807813	    -27.13800263	      3.40287775	     -1.47779256	      3.04279694	     26.63799747	    116.90807813	     27.13800263	    -13.74439227	      0.80333616	     10.01367755	    169.26721285	     24.65930944	    122.93719058	    822.95586440
      0.17749241	      0.01483379	      0.01908878	     60.57063577	      0.88558581	      0.00000000	    392.03049925	    231.34028205	      0.00000000	      0.00000000	      0.00000000	      0.00000000	      0.00000000	      0.00000000	      0.00000000	      0.00000000	      0.00000001	      0.00000000	      0.03233096	      0.02469071	      0.03385898	      0.03142409	      0.05966822	      0.05919203	      0.05620034	      0.05114528	      0.04630003	      0.04113384	      0.01525851	      0.01651186	      0.06550154	      0.04489616	      0.04274933	     -0.01468519	      0.08887763	      0.05140204	     -0.00597699	     -0.01005919	     -0.04304015	     -0.08631939	     -0.17789101	     -0.21414375	      0.00000079	     -0.32847694	      0.00000060	     -0.00000086	     43.27195548	    161.54638461	     23.97527765	    -13.57666635	      1.12776316	     16.26169888	    -43.27195548	   -161.54638461	    -23.97527765	      4.54217568	     -1.75905794	      4.29795739	     22.84108814	      9.91713277	     -1.32358672	      0.73352462	     -0.49782473	      9.14848233	    -22.84108814	     -9.91713277	      1.32358672	     -0.20164754	      0.48831746	     -0.04113321	   -466.17760301	   -653.96054961	    190.94242710	    -13.63092558	     12.63335823	      9.52496765	    466.17760301	    653.96054961	   -190.94242710	     88.99466629	     -9.03117077	    186.80948280	    -26.45976237	   -115.96208889	    -26.80886751	      3.37038281	     -1.46465877	      3.02574379	     26.45976237	    115.96208889	     26.80886751	    -13.58635555	      0.79730303	      9.94385207	    168.95120730	     24.93625296	    121.92637312	    825.49680100
